<svg width="170.000000" height="170.000000" viewBox="0 0 170 170" fill="none" xmlns="http://www.w3.org/2000/svg" xmlns:xlink="http://www.w3.org/1999/xlink">
	<desc>
			Created with Pixso.
	</desc>
	<defs/>
	<circle id="Ellipse 21" cx="85.000000" cy="85.000000" r="85.000000" fill="#FFFFFF" fill-opacity="1.000000"/>
	<path id="Vector" d="M131.04 89.47C131.04 117.38 108.42 140 80.51 140C52.61 140 30 117.38 30 89.47C30 61.57 52.61 38.95 80.51 38.95C108.42 38.95 131.04 61.57 131.04 89.47Z" fill="#F8F8F8" fill-opacity="1.000000" fill-rule="evenodd"/>
	<path id="Vector" d="M138.93 71.87C138.24 68.49 137.21 65.18 135.87 62.02C134.56 58.91 132.93 55.91 131.04 53.11C129.16 50.33 127.01 47.72 124.64 45.35C122.26 42.98 119.66 40.83 116.88 38.95C114.08 37.06 111.08 35.44 107.98 34.12C104.81 32.77 101.49 31.75 98.12 31.06C94.67 30.36 91.12 30 87.56 30C84.01 30 80.46 30.36 77 31.06C73.63 31.75 70.32 32.78 67.15 34.12C64.05 35.43 61.05 37.06 58.24 38.95C55.47 40.83 52.86 42.98 50.49 45.35C48.12 47.73 45.97 50.33 44.09 53.11C42.2 55.91 40.57 58.91 39.25 62.02C37.91 65.18 36.89 68.5 36.2 71.87C35.49 75.32 35.13 78.87 35.13 82.43C35.13 85.98 35.49 89.53 36.2 92.99C36.89 96.36 37.92 99.67 39.25 102.84C40.57 105.95 42.2 108.94 44.09 111.75C45.96 114.52 48.12 117.13 50.49 119.5C52.86 121.87 55.47 124.02 58.24 125.9C61.05 127.79 64.05 129.42 67.15 130.74C70.32 132.08 73.64 133.11 77 133.79C80.46 134.5 84.01 134.86 87.56 134.86C91.12 134.86 94.67 134.5 98.12 133.79C101.5 133.11 104.81 132.07 107.98 130.74C111.08 129.42 114.08 127.79 116.88 125.9C119.66 124.03 122.27 121.87 124.64 119.5C127.01 117.13 129.16 114.52 131.04 111.75C132.93 108.94 134.55 105.95 135.87 102.84C137.22 99.67 138.24 96.35 138.93 92.99C139.63 89.53 140 85.98 140 82.43C140 78.87 139.63 75.32 138.93 71.87ZM133.49 82.43C133.49 107.79 112.93 128.35 87.56 128.35C62.2 128.35 41.64 107.79 41.64 82.43C41.64 57.07 62.2 36.5 87.56 36.5C112.93 36.5 133.49 57.07 133.49 82.43Z" fill="#FFBC57" fill-opacity="1.000000" fill-rule="nonzero"/>
	<path id="Vector" d="M78.23 103.85C78.22 103.85 78.19 103.85 78.18 103.85C77.17 103.83 76.23 103.35 75.62 102.53L65.3 88.63C64.23 87.19 64.52 85.16 65.97 84.08C67.41 83.01 69.45 83.31 70.52 84.76L78.32 95.26L104.68 62.24C105.8 60.83 107.85 60.6 109.25 61.72C110.65 62.84 110.88 64.89 109.76 66.3L80.77 102.62C80.16 103.4 79.22 103.85 78.23 103.85Z" fill="#2B2929" fill-opacity="1.000000" fill-rule="nonzero"/>
</svg>
